<?xml version="1.0" encoding="utf-8"?>
<!-- Generator: Adobe Illustrator 11 Build 197, SVG Export Plug-In . SVG Version: 6.0.0 Build 78)  -->
<!DOCTYPE svg PUBLIC "-//W3C//DTD SVG 1.0//EN"    "http://www.w3.org/TR/2001/REC-SVG-20010904/DTD/svg10.dtd">
<svg
   xmlns="http://www.w3.org/2000/svg" xmlns:xlink="http://www.w3.org/1999/xlink"
   width="478.986" height="374.597" viewBox="0 0 478.986 374.597" xml:space="preserve">

    <g xmlns="http://www.w3.org/2000/svg" id="u-1">
      <path d="M213.396 187.302 l -90.24886437626904 -90.25386437626904a 20 20 -45 0 1 0 -28.284271247461902 l 50.008728752538104 -50.008728752538104a 20 20 -45 0 1 28.284271247461902 0 l 38.05286437626904 38.05686437626905 l -26.09700000000001,26.09400000000001 l -26.097999999999985,-26.09400000000001 l -26.098000000000013,26.09400000000001 l 78.293,78.297 z" style="fill:#660066;stroke:#000000;stroke-width:6.5244;stroke-miterlimit:3.8637;"/>
    </g>
    <g xmlns="http://www.w3.org/2000/svg" id="u-2" style="transform: rotate(90deg) translate(-104px,-374px)">
      <path d="M213.396 187.302 l -90.24886437626904 -90.25386437626904a 20 20 -45 0 1 0 -28.284271247461902 l 50.008728752538104 -50.008728752538104a 20 20 -45 0 1 28.284271247461902 0 l 38.05286437626904 38.05686437626905 l -26.09700000000001,26.09400000000001 l -26.097999999999985,-26.09400000000001 l -26.098000000000013,26.09400000000001 l 78.293,78.297 z" style="fill:#660066;stroke:#000000;stroke-width:6.5244;stroke-miterlimit:3.8637;"/>
    </g>
    <g xmlns="http://www.w3.org/2000/svg" id="u-3" style="transform: rotate(180deg) translate(-479px,-374px)">
      <path d="M213.396 187.302 l -90.24886437626904 -90.25386437626904a 20 20 -45 0 1 0 -28.284271247461902 l 50.008728752538104 -50.008728752538104a 20 20 -45 0 1 28.284271247461902 0 l 38.05286437626904 38.05686437626905 l -26.09700000000001,26.09400000000001 l -26.097999999999985,-26.09400000000001 l -26.098000000000013,26.09400000000001 l 78.293,78.297 z" style="fill:#660066;stroke:#000000;stroke-width:6.5244;stroke-miterlimit:3.8637;"/>
    </g>
    <g xmlns="http://www.w3.org/2000/svg" id="u-4" style="transform: rotate(270deg) translate(-479px,104px)">
      <path d="M213.396 187.302 l -90.24886437626904 -90.25386437626904a 20 20 -45 0 1 0 -28.284271247461902 l 50.008728752538104 -50.008728752538104a 20 20 -45 0 1 28.284271247461902 0 l 38.05286437626904 38.05686437626905 l -26.09700000000001,26.09400000000001 l -26.097999999999985,-26.09400000000001 l -26.098000000000013,26.09400000000001 l 78.293,78.297 z" style="fill:#660066;stroke:#000000;stroke-width:6.5244;stroke-miterlimit:3.8637;"/>
    </g>
    <g xmlns="http://www.w3.org/2000/svg" id="p-1">
      <path d="M161.2,135.104 l -78.29299999999999,78.29199999999997 l -26.098,-26.093999999999994 l 26.098,-26.09899999999999 l 26.098,26.09899999999999 l 26.098000000000013,-26.101 l -38.05386437626906 -38.05386437626905a 20 20 -45 0 0 -28.284271247461902 0 l -50.009728752538095 50.012728752538095a 20 20 -45 0 0 0 28.284271247461902 l 50.009728752538095 50.00872875253813a 20 20 -45 0 0 28.284271247461902 0 l 90.24886437626905 -90.25186437626908 z" style="fill:#660066;stroke:#000000;stroke-width:6.5244;stroke-miterlimit:3.8637;"/>
    </g>
    <g xmlns="http://www.w3.org/2000/svg" id="p-2" style="transform: rotate(180deg) translate(-479px, -375px)">
      <path d="M161.2,135.104 l -78.29299999999999,78.29199999999997 l -26.098,-26.093999999999994 l 26.098,-26.09899999999999 l 26.098,26.09899999999999 l 26.098000000000013,-26.101 l -38.05386437626906 -38.05386437626905a 20 20 -45 0 0 -28.284271247461902 0 l -50.009728752538095 50.012728752538095a 20 20 -45 0 0 0 28.284271247461902 l 50.009728752538095 50.00872875253813a 20 20 -45 0 0 28.284271247461902 0 l 90.24886437626905 -90.25186437626908 z" style="fill:#660066;stroke:#000000;stroke-width:6.5244;stroke-miterlimit:3.8637;"/>
    </g>
    <g xmlns="http://www.w3.org/2000/svg" id="Ebene_4">
      <path d="M239.493 109.005l26.09699999999998 -26.09899999999999l78.293 78.29499999999999l-26.09699999999998 26.101 z" style="fill:#660066;stroke:#000000;stroke-width:6.5244;stroke-miterlimit:3.8637;"/>
    </g>
    <g xmlns="http://www.w3.org/2000/svg" id="Ebene_9">
      <rect x="221.019" y="131.945" transform="matrix(0.7072 0.707 -0.707 0.7072 202.5396 -114.4671)" style="fill:#660066;stroke:#000000;stroke-width:6.5244;stroke-miterlimit:3.8637;" width="36.908" height="110.721"/>
    </g>
    <g xmlns="http://www.w3.org/2000/svg" id="Ebene_10">
      <rect x="168.845" y="184.154" transform="matrix(0.7071 -0.7071 0.7071 0.7071 -114.5035 202.5915)" style="fill:#660066;stroke:#000000;stroke-width:6.5244;stroke-miterlimit:3.8637;" width="36.905" height="110.72"/>
    </g>

  </svg>
